<?xml version="1.0" encoding="utf-8"?>
<!-- Generator: Adobe Illustrator 19.2.0, SVG Export Plug-In . SVG Version: 6.00 Build 0)  -->
<svg version="1.1" id="Layer_1" xmlns="http://www.w3.org/2000/svg" xmlns:xlink="http://www.w3.org/1999/xlink" x="0px" y="0px"
	 viewBox="0 0 136.9 136.9" style="enable-background:new 0 0 136.9 136.9;" xml:space="preserve">
<style type="text/css">
	.st0{fill:#ED1C24;}
	.st1{fill:#FFFFFF;}
</style>
<g>
	<g>
		<g>
			<g>
				<circle class="st0" cx="68.5" cy="68.5" r="63.3"/>
			</g>
		</g>
	</g>
	<g>
		<path class="st0" d="M47.4,55.6H40c-2.9,0-5.2,2.3-5.2,5.2v34.1c0,2.9,2.3,5.2,5.2,5.2h7.4c2.9,0,5.2-2.3,5.2-5.2V60.8
			C52.6,57.9,50.2,55.6,47.4,55.6z"/>
		<path class="st0" d="M90.3,57.8h-14c0,0,2.2-4.4,2.2-11.8c0-8.9-6.7-11.8-9.6-11.8c-3,0-4.4,1.5-4.4,8.9c0,7-8.3,12.7-12.7,15.6
			v36.7c4.7,2.2,15.7,5.4,30.5,5.4H87c5.8,0,10.7-4.1,11.7-9.8l3.3-19.3C103.3,64.4,97.7,57.8,90.3,57.8z"/>
		<path class="st1" d="M40,52.6h7.4c2.9,0,5.2,2.3,5.2,5.2v40c0,2.9-2.3,5.2-5.2,5.2H40c-2.9,0-5.2-2.3-5.2-5.2v-40
			C34.8,55,37.1,52.6,40,52.6z M47.4,98.6c0.4,0,0.7-0.3,0.7-0.7v-40c0-0.4-0.3-0.7-0.7-0.7H40c-0.4,0-0.7,0.3-0.7,0.7v40
			c0,0.4,0.3,0.7,0.7,0.7H47.4z"/>
		<path class="st1" d="M70.4,31.9c3.3,0,9.6,2.9,9.6,14.1c0,4.1-0.8,7.4-1.7,9.6h13.4c4.2,0,8.1,1.8,10.8,5
			c2.7,3.2,3.8,7.4,3.1,11.5l-3.3,19.3c-1.2,6.8-7,11.7-13.9,11.7h-4.7c-22.7,0-33.4-7.5-33.9-7.8l-0.8-0.6c-1-0.7-1.2-2.1-0.5-3.1
			c0.7-1,2.1-1.2,3.1-0.5l0.8,0.6c0.1,0.1,10.2,7,31.3,7h4.7c4.7,0,8.7-3.4,9.5-8l3.3-19.3c0.5-2.8-0.3-5.7-2.1-7.8
			c-1.8-2.2-4.5-3.4-7.4-3.4H74.9c-0.8,0-1.6-0.5-2-1.2c-0.4-0.7-0.3-1.6,0.1-2.3c0,0,2.6-4.1,2.6-10.6c0-7.1-3.1-9.6-5.2-9.6
			c-1.1,0-2.2,0-2.2,6.7c0,11.6-15.4,19.4-16,19.8l-0.8,0.4c-1.1,0.5-2.4,0.1-3-1c-0.5-1.1-0.1-2.4,1-3l0.8-0.4
			c0.1-0.1,13.6-6.9,13.6-15.8C63.8,37.6,64.3,31.9,70.4,31.9z"/>
	</g>
</g>
</svg>
