<?xml version="1.0" encoding="utf-8"?>
<!-- Generator: Adobe Illustrator 19.2.0, SVG Export Plug-In . SVG Version: 6.00 Build 0)  -->
<svg version="1.1" id="Layer_1" xmlns="http://www.w3.org/2000/svg" xmlns:xlink="http://www.w3.org/1999/xlink" x="0px" y="0px"
	 viewBox="0 0 136.9 136.9" style="enable-background:new 0 0 136.9 136.9;" xml:space="preserve">
<style type="text/css">
	.st0{fill:#2DB58E;}
	.st1{fill:#FFFFFF;}
</style>
<g>
	<g>
		<g>
			<g>
				<g>
					<circle class="st0" cx="68.5" cy="68.5" r="63.3"/>
				</g>
			</g>
		</g>
	</g>
	<g>
		<path class="st0" d="M91.4,87.6h7.4c2.9,0,5.2-2.3,5.2-5.2V48.4c0-2.9-2.3-5.2-5.2-5.2h-7.4c-2.9,0-5.2,2.3-5.2,5.2v34.1
			C86.2,85.3,88.6,87.6,91.4,87.6z"/>
		<path class="st0" d="M48.5,85.4h14c0,0-2.2,4.4-2.2,11.8c0,8.9,6.7,11.8,9.6,11.8c3,0,4.4-1.5,4.4-8.9c0-7,8.3-12.7,12.7-15.6
			V47.9c-4.7-2.2-15.7-5.4-30.5-5.4h-4.7c-5.8,0-10.7,4.1-11.7,9.8l-3.3,19.3C35.5,78.8,41.1,85.4,48.5,85.4z"/>
		<path class="st1" d="M98.8,90.6h-7.4c-2.9,0-5.2-2.3-5.2-5.2v-40c0-2.9,2.3-5.2,5.2-5.2h7.4c2.9,0,5.2,2.3,5.2,5.2v40
			C104,88.2,101.7,90.6,98.8,90.6z M91.4,44.6c-0.4,0-0.7,0.3-0.7,0.7v40c0,0.4,0.3,0.7,0.7,0.7h7.4c0.4,0,0.7-0.3,0.7-0.7v-40
			c0-0.4-0.3-0.7-0.7-0.7H91.4z"/>
		<path class="st1" d="M68.4,111.3c-3.3,0-9.6-2.9-9.6-14.1c0-4.1,0.8-7.4,1.7-9.6H47c-4.2,0-8.1-1.8-10.8-5
			c-2.7-3.2-3.8-7.4-3.1-11.5l3.3-19.3c1.2-6.8,7-11.7,13.9-11.7H55c22.7,0,33.4,7.5,33.9,7.8l0.8,0.6c1,0.7,1.2,2.1,0.5,3.1
			c-0.7,1-2.1,1.2-3.1,0.5l-0.8-0.6c-0.1-0.1-10.2-7-31.3-7h-4.7c-4.7,0-8.7,3.4-9.5,8l-3.3,19.3c-0.5,2.8,0.3,5.7,2.1,7.8
			c1.8,2.2,4.5,3.4,7.4,3.4h16.9c0.8,0,1.6,0.5,2,1.2c0.4,0.7,0.3,1.6-0.1,2.3c0,0-2.6,4.1-2.6,10.6c0,7.1,3.1,9.6,5.2,9.6
			c1.1,0,2.2,0,2.2-6.7c0-11.6,15.4-19.4,16-19.8l0.8-0.4c1.1-0.5,2.4-0.1,3,1c0.5,1.1,0.1,2.4-1,3l-0.8,0.4
			C88.5,84.5,75,91.3,75,100.2C75,105.6,74.5,111.3,68.4,111.3z"/>
	</g>
</g>
</svg>
