<?xml version="1.0" encoding="utf-8"?>
<!-- Generator: Adobe Illustrator 19.2.0, SVG Export Plug-In . SVG Version: 6.00 Build 0)  -->
<svg version="1.1" id="Layer_1" xmlns="http://www.w3.org/2000/svg" xmlns:xlink="http://www.w3.org/1999/xlink" x="0px" y="0px"
	 viewBox="0 0 136.9 136.9" style="enable-background:new 0 0 136.9 136.9;" xml:space="preserve">
<style type="text/css">
	.st0{fill:#D35387;}
	.st1{fill:#FFFFFF;}
</style>
<g>
	<g>
		<g>
			<g>
				<g>
					<circle class="st0" cx="68.5" cy="68.5" r="63.3"/>
				</g>
			</g>
		</g>
	</g>
	<g>
		<path class="st0" d="M91.5,89.2h7.4c2.9,0,5.2-2.3,5.2-5.2V50c0-2.9-2.3-5.2-5.2-5.2h-7.4c-2.9,0-5.2,2.3-5.2,5.2V84
			C86.3,86.9,88.7,89.2,91.5,89.2z"/>
		<path class="st0" d="M48.6,87h14c0,0-2.2,4.4-2.2,11.8c0,8.9,6.7,11.8,9.6,11.8c3,0,4.4-1.5,4.4-8.9c0-7,8.3-12.7,12.7-15.6V49.5
			C82.3,47.3,71.4,44,56.6,44h-4.7c-5.8,0-10.7,4.1-11.7,9.8l-3.3,19.3C35.7,80.4,41.2,87,48.6,87z"/>
		<path class="st1" d="M98.9,92.2h-7.4c-2.9,0-5.2-2.3-5.2-5.2V47c0-2.9,2.3-5.2,5.2-5.2h7.4c2.9,0,5.2,2.3,5.2,5.2v40
			C104.1,89.9,101.8,92.2,98.9,92.2z M91.5,46.3c-0.4,0-0.7,0.3-0.7,0.7v40c0,0.4,0.3,0.7,0.7,0.7h7.4c0.4,0,0.7-0.3,0.7-0.7V47
			c0-0.4-0.3-0.7-0.7-0.7H91.5z"/>
		<path class="st1" d="M68.5,112.9c-3.3,0-9.6-2.9-9.6-14.1c0-4.1,0.8-7.4,1.7-9.6H47.1c-4.2,0-8.1-1.8-10.8-5
			c-2.7-3.2-3.8-7.4-3.1-11.5l3.3-19.3c1.2-6.8,7-11.7,13.9-11.7h4.7c22.7,0,33.4,7.5,33.9,7.8l0.8,0.6c1,0.7,1.2,2.1,0.5,3.1
			c-0.7,1-2.1,1.2-3.1,0.5l-0.8-0.6c-0.1-0.1-10.2-7-31.3-7h-4.7c-4.7,0-8.7,3.4-9.5,8l-3.3,19.3c-0.5,2.8,0.3,5.7,2.1,7.8
			c1.8,2.2,4.5,3.4,7.4,3.4H64c0.8,0,1.6,0.5,2,1.2c0.4,0.7,0.3,1.6-0.1,2.3c0,0-2.6,4.1-2.6,10.6c0,7.1,3.1,9.6,5.2,9.6
			c1.1,0,2.2,0,2.2-6.7c0-11.6,15.4-19.4,16-19.8l0.8-0.4c1.1-0.5,2.4-0.1,3,1c0.5,1.1,0.1,2.4-1,3L88.7,86
			c-0.1,0.1-13.6,6.9-13.6,15.8C75.1,107.2,74.6,112.9,68.5,112.9z"/>
	</g>
</g>
</svg>
