<?xml version="1.0" encoding="UTF-8"?>
<!DOCTYPE svg PUBLIC "-//W3C//DTD SVG 1.1//EN" "http://www.w3.org/Graphics/SVG/1.1/DTD/svg11.dtd">
<!-- Creator: CorelDRAW X7 -->
<svg xmlns="http://www.w3.org/2000/svg" xml:space="preserve" width="8.5in" height="11in" version="1.1" style="shape-rendering:geometricPrecision; text-rendering:geometricPrecision; image-rendering:optimizeQuality; fill-rule:evenodd; clip-rule:evenodd"
viewBox="0 0 8500 11000"
 xmlns:xlink="http://www.w3.org/1999/xlink">
 <defs>
  <style type="text/css">
   <![CDATA[
    .fil0 {fill:#ED3237}
    .fil2 {fill:#00AFEF}
    .fil4 {fill:#2DB58E}
    .fil3 {fill:#EDBF00}
    .fil1 {fill:white}
   ]]>
  </style>
 </defs>
 <g id="Layer_x0020_1">
  <metadata id="CorelCorpID_0Corel-Layer"/>
  <g id="_1810850762096">
   <g>
    <circle class="fil0" cx="-7392" cy="7429" r="3930"/>
   </g>
   <path class="fil0" d="M-5964 8714l459 0c181,0 323,-143 323,-323l0 -2111c0,-180 -142,-323 -323,-323l-459 0c-180,0 -323,143 -323,323l0 2111c0,180 149,323 323,323z"/>
   <path class="fil0" d="M-8628 8578l870 0c0,0 -137,273 -137,732 0,553 416,733 596,733 186,0 273,-93 273,-553 0,-434 516,-788 789,-968l0 -2273c-298,-136 -975,-341 -1894,-341l-292 0c-360,0 -664,254 -726,608l-205 1199c-75,453 267,863 726,863z"/>
   <path class="fil1" d="M-5505 8901l-459 0c-180,0 -323,-143 -323,-323l0 -2484c0,-180 143,-323 323,-323l459 0c181,0 323,143 323,323l0 2484c0,180 -142,323 -323,323zm-459 -2850c-25,0 -43,18 -43,43l0 2484c0,24 18,43 43,43l459 0c25,0 44,-19 44,-43l0 -2484c0,-25 -19,-43 -44,-43l-459 0z"/>
   <path class="fil1" d="M-7392 10186c-205,0 -596,-180 -596,-876 0,-254 50,-459 105,-596l-838 0c-261,0 -503,-112 -670,-310 -168,-199 -236,-460 -193,-714l205 -1199c75,-422 435,-726 863,-726l292 0c1409,0 2074,466 2105,484l49 38c63,43 75,130 31,192 -43,62 -130,75 -192,31l-50 -37c-6,-6 -633,-435 -1943,-435l-292 0c-292,0 -540,211 -590,497l-205 1198c-31,174 19,354 131,485 112,136 279,211 459,211l1050 0c49,0 99,31 124,74 25,44 18,99 -6,143 0,0 -162,255 -162,658 0,441 193,596 323,596 68,0 137,0 137,-416 0,-720 956,-1204 993,-1229l50 -25c68,-31 149,-6 186,62 31,68 6,149 -62,186l-50 38c-6,6 -844,428 -844,981 0,335 -31,689 -410,689z"/>
  </g>
  <g id="_1810850777264">
   <g>
    <g>
     <g>
      <circle class="fil2" cx="18960" cy="9485" r="3930"/>
     </g>
    </g>
   </g>
   <path class="fil2" d="M17650 8684l-459 0c-180,0 -323,143 -323,323l0 2117c0,180 143,323 323,323l459 0c180,0 323,-143 323,-323l0 -2117c0,-180 -149,-323 -323,-323z"/>
   <path class="fil2" d="M20314 8821l-869 0c0,0 136,-273 136,-733 0,-552 -416,-732 -596,-732 -186,0 -273,93 -273,552 0,435 -515,789 -788,969l0 2278c291,137 974,336 1893,336l292 0c360,0 664,-255 727,-609l204 -1198c81,-453 -267,-863 -726,-863z"/>
   <path class="fil1" d="M17191 8498l459 0c180,0 323,143 323,323l0 2483c0,181 -143,323 -323,323l-459 0c-180,0 -323,-142 -323,-323l0 -2483c0,-174 143,-323 323,-323zm459 2856c25,0 44,-18 44,-43l0 -2484c0,-25 -19,-43 -44,-43l-459 0c-25,0 -44,18 -44,43l0 2484c0,25 19,43 44,43l459 0z"/>
   <path class="fil1" d="M19078 7213c205,0 596,180 596,875 0,255 -49,460 -105,596l832 0c261,0 503,112 670,311 168,198 236,459 193,714l-205 1198c-74,422 -435,727 -863,727l-292 0c-1409,0 -2074,-466 -2105,-485l-49 -37c-62,-43 -75,-130 -31,-192 43,-63 130,-75 192,-32l50 38c6,6 633,434 1943,434l292 0c292,0 540,-211 590,-496l205 -1199c31,-174 -19,-354 -131,-484 -111,-137 -279,-211 -459,-211l-1043 0c-50,0 -100,-31 -124,-75 -25,-43 -19,-99 6,-142 0,0 161,-255 161,-659 0,-440 -192,-596 -323,-596 -68,0 -136,0 -136,416 0,721 -956,1205 -994,1230l-49 25c-69,31 -149,6 -187,-62 -31,-69 -6,-149 63,-187l49 -25c6,-6 845,-428 845,-981 0,-347 31,-701 409,-701z"/>
  </g>
  <g id="mobile.svg">
   <g>
    <g>
     <g>
      <g>
       <circle class="fil3" cx="-7608" cy="3340" r="3930"/>
      </g>
     </g>
    </g>
    <g>
     <path class="fil3" d="M-6298 4141l459 0c180,0 323,-143 323,-323l0 -2117c0,-180 -143,-323 -323,-323l-459 0c-180,0 -323,143 -323,323l0 2117c0,180 149,323 323,323z"/>
     <path class="fil3" d="M-8962 4005l870 0c0,0 -137,273 -137,732 0,553 416,733 596,733 186,0 273,-93 273,-553 0,-434 515,-788 789,-968l0 -2279c-292,-137 -975,-335 -1894,-335l-292 0c-360,0 -664,254 -726,608l-205 1199c-81,453 267,863 726,863z"/>
     <path class="fil1" d="M-5839 4327l-459 0c-180,0 -323,-142 -323,-322l0 -2484c0,-180 143,-323 323,-323l459 0c180,0 323,143 323,323l0 2484c0,173 -143,322 -323,322zm-459 -2856c-25,0 -44,19 -44,44l0 2483c0,25 19,44 44,44l459 0c25,0 44,-19 44,-44l0 -2483c0,-25 -19,-44 -44,-44l-459 0z"/>
     <path class="fil1" d="M-7726 5613c-205,0 -596,-180 -596,-876 0,-254 49,-459 105,-596l-832 0c-260,0 -503,-112 -670,-310 -168,-199 -236,-460 -193,-714l205 -1199c75,-422 435,-726 863,-726l292 0c1409,0 2074,466 2105,484l50 37c62,44 74,131 31,193 -44,62 -131,74 -193,31l-50 -37c-6,-6 -633,-435 -1943,-435l-292 0c-292,0 -540,211 -590,497l-205 1198c-31,174 19,354 131,484 112,137 279,212 459,212l1043 0c50,0 100,31 125,74 24,44 18,99 -7,143 0,0 -161,254 -161,658 0,441 192,596 323,596 68,0 136,0 136,-416 0,-720 957,-1204 994,-1229l50 -25c68,-31 149,-6 186,62 31,68 6,149 -62,186l-50 25c-6,6 -844,428 -844,981 0,348 -31,702 -410,702z"/>
    </g>
   </g>
  </g>
  <g id="social.svg">
   <g>
    <g>
     <g>
      <g>
       <g>
        <circle class="fil4" cx="4250" cy="5500" r="3930"/>
       </g>
      </g>
     </g>
    </g>
    <g>
     <path class="fil4" d="M2828 4314l-459 0c-180,0 -323,143 -323,323l0 2111c0,180 143,323 323,323l459 0c180,0 323,-143 323,-323l0 -2117c0,-174 -149,-317 -323,-317z"/>
     <path class="fil4" d="M5492 4451l-869 0c0,0 136,-273 136,-733 0,-553 -416,-733 -596,-733 -186,0 -273,94 -273,553 0,435 -515,789 -789,969l0 2272c292,137 975,335 1894,335l292 0c360,0 664,-254 726,-608l205 -1198c81,-448 -267,-857 -726,-857z"/>
     <path class="fil1" d="M2369 4128l459 0c180,0 323,143 323,323l0 2483c0,180 -143,323 -323,323l-459 0c-180,0 -323,-143 -323,-323l0 -2483c0,-174 143,-323 323,-323zm459 2856c25,0 44,-19 44,-44l0 -2483c0,-25 -19,-44 -44,-44l-459 0c-25,0 -44,19 -44,44l0 2483c0,25 19,44 44,44l459 0z"/>
     <path class="fil1" d="M4256 2843c205,0 596,180 596,875 0,255 -49,460 -105,596l838 0c261,0 503,112 670,311 168,198 236,459 193,714l-205 1198c-74,422 -435,726 -863,726l-292 0c-1409,0 -2074,-465 -2105,-484l-49 -37c-62,-44 -75,-131 -31,-193 43,-62 130,-74 192,-31l50 38c6,6 633,434 1943,434l292 0c292,0 540,-211 590,-497l205 -1198c31,-174 -19,-354 -131,-484 -111,-137 -279,-211 -459,-211l-1049 0c-50,0 -100,-31 -125,-75 -24,-43 -18,-99 7,-143 0,0 161,-254 161,-658 0,-441 -192,-596 -323,-596 -68,0 -136,0 -136,416 0,720 -957,1205 -994,1230l-49 24c-69,31 -149,7 -187,-62 -31,-68 -6,-149 62,-186l50 -25c6,-18 844,-441 844,-993 0,-336 31,-689 410,-689z"/>
    </g>
   </g>
  </g>
 </g>
</svg>
