<?xml version="1.0" encoding="UTF-8"?>
<!DOCTYPE svg PUBLIC "-//W3C//DTD SVG 1.1//EN" "http://www.w3.org/Graphics/SVG/1.1/DTD/svg11.dtd">
<!-- Creator: CorelDRAW X7 -->
<svg xmlns="http://www.w3.org/2000/svg" xml:space="preserve" width="8.5in" height="11in" version="1.1" style="shape-rendering:geometricPrecision; text-rendering:geometricPrecision; image-rendering:optimizeQuality; fill-rule:evenodd; clip-rule:evenodd"
viewBox="0 0 8500 11000"
 xmlns:xlink="http://www.w3.org/1999/xlink">
 <defs>
  <style type="text/css">
   <![CDATA[
    .fil0 {fill:#ED3237}
    .fil2 {fill:#00AFEF}
    .fil4 {fill:#2DB58E}
    .fil3 {fill:#EDBF00}
    .fil1 {fill:white}
   ]]>
  </style>
 </defs>
 <g id="Layer_x0020_1">
  <metadata id="CorelCorpID_0Corel-Layer"/>
  <g id="_1810992167696">
   <g>
    <circle class="fil0" cx="4250" cy="5500" r="3930"/>
   </g>
   <path class="fil0" d="M5678 6785l460 0c180,0 322,-143 322,-323l0 -2111c0,-180 -142,-323 -322,-323l-460 0c-180,0 -323,143 -323,323l0 2111c0,180 149,323 323,323z"/>
   <path class="fil0" d="M3014 6649l870 0c0,0 -137,273 -137,732 0,553 416,733 596,733 186,0 273,-93 273,-553 0,-434 516,-788 789,-968l0 -2273c-298,-136 -975,-341 -1894,-341l-292 0c-360,0 -664,254 -726,608l-205 1199c-75,453 267,863 726,863z"/>
   <path class="fil1" d="M6138 6972l-460 0c-180,0 -323,-143 -323,-323l0 -2484c0,-180 143,-323 323,-323l460 0c180,0 322,143 322,323l0 2484c0,180 -142,323 -322,323zm-460 -2850c-25,0 -43,18 -43,43l0 2484c0,24 18,43 43,43l460 0c24,0 43,-19 43,-43l0 -2484c0,-25 -19,-43 -43,-43l-460 0z"/>
   <path class="fil1" d="M4250 8257c-205,0 -596,-180 -596,-876 0,-254 50,-459 105,-596l-838 0c-260,0 -503,-112 -670,-310 -168,-199 -236,-460 -193,-714l205 -1199c75,-422 435,-726 863,-726l292 0c1409,0 2074,466 2105,484l50 38c62,43 74,130 31,192 -44,62 -131,75 -193,31l-50 -37c-6,-6 -633,-435 -1943,-435l-292 0c-292,0 -540,211 -590,497l-205 1198c-31,174 19,354 131,485 112,136 279,211 459,211l1050 0c49,0 99,31 124,74 25,44 18,99 -6,143 0,0 -162,255 -162,658 0,441 193,596 323,596 68,0 137,0 137,-416 0,-720 956,-1204 993,-1229l50 -25c68,-31 149,-6 186,62 31,68 6,149 -62,186l-50 38c-6,6 -844,428 -844,981 0,335 -31,689 -410,689z"/>
  </g>
  <g id="_1810992165168">
   <g>
    <g>
     <g>
      <circle class="fil2" cx="18960" cy="9485" r="3930"/>
     </g>
    </g>
   </g>
   <path class="fil2" d="M17650 8684l-459 0c-180,0 -323,143 -323,323l0 2117c0,180 143,323 323,323l459 0c180,0 323,-143 323,-323l0 -2117c0,-180 -149,-323 -323,-323z"/>
   <path class="fil2" d="M20314 8821l-869 0c0,0 136,-273 136,-733 0,-552 -416,-732 -596,-732 -186,0 -273,93 -273,552 0,435 -515,789 -788,969l0 2278c291,137 974,336 1893,336l292 0c360,0 664,-255 727,-609l204 -1198c81,-453 -267,-863 -726,-863z"/>
   <path class="fil1" d="M17191 8498l459 0c180,0 323,143 323,323l0 2483c0,181 -143,323 -323,323l-459 0c-180,0 -323,-142 -323,-323l0 -2483c0,-174 143,-323 323,-323zm459 2856c25,0 44,-18 44,-43l0 -2484c0,-25 -19,-43 -44,-43l-459 0c-25,0 -44,18 -44,43l0 2484c0,25 19,43 44,43l459 0z"/>
   <path class="fil1" d="M19078 7213c205,0 596,180 596,875 0,255 -49,460 -105,596l832 0c261,0 503,112 670,311 168,198 236,459 193,714l-205 1198c-74,422 -435,727 -863,727l-292 0c-1409,0 -2074,-466 -2105,-485l-49 -37c-62,-43 -75,-130 -31,-192 43,-63 130,-75 192,-32l50 38c6,6 633,434 1943,434l292 0c292,0 540,-211 590,-496l205 -1199c31,-174 -19,-354 -131,-484 -111,-137 -279,-211 -459,-211l-1043 0c-50,0 -100,-31 -124,-75 -25,-43 -19,-99 6,-142 0,0 161,-255 161,-659 0,-440 -192,-596 -323,-596 -68,0 -136,0 -136,416 0,721 -956,1205 -994,1230l-49 25c-69,31 -149,6 -187,-62 -31,-69 -6,-149 63,-187l49 -25c6,-6 845,-428 845,-981 0,-347 31,-701 409,-701z"/>
  </g>
  <g id="mobile.svg">
   <g>
    <g>
     <g>
      <g>
       <circle class="fil3" cx="-9318" cy="-3083" r="3930"/>
      </g>
     </g>
    </g>
    <g>
     <path class="fil3" d="M-8008 -2282l459 0c180,0 323,-143 323,-323l0 -2118c0,-180 -143,-322 -323,-322l-459 0c-180,0 -323,142 -323,322l0 2118c0,180 149,323 323,323z"/>
     <path class="fil3" d="M-10672 -2419l870 0c0,0 -137,273 -137,733 0,552 416,732 596,732 186,0 273,-93 273,-552 0,-435 516,-789 789,-969l0 -2279c-292,-136 -975,-335 -1894,-335l-292 0c-360,0 -664,255 -726,609l-205 1198c-81,453 267,863 726,863z"/>
     <path class="fil1" d="M-7549 -2096l-459 0c-180,0 -323,-143 -323,-323l0 -2484c0,-180 143,-322 323,-322l459 0c180,0 323,142 323,322l0 2484c0,174 -143,323 -323,323zm-459 -2856c-25,0 -44,18 -44,43l0 2484c0,25 19,43 44,43l459 0c25,0 44,-18 44,-43l0 -2484c0,-25 -19,-43 -44,-43l-459 0z"/>
     <path class="fil1" d="M-9436 -811c-205,0 -596,-180 -596,-875 0,-255 49,-460 105,-596l-832 0c-260,0 -503,-112 -670,-311 -168,-199 -236,-459 -193,-714l205 -1198c75,-422 435,-727 863,-727l292 0c1410,0 2074,466 2105,485l50 37c62,43 74,130 31,192 -44,62 -131,75 -193,31l-50 -37c-6,-6 -633,-434 -1943,-434l-292 0c-292,0 -540,211 -590,496l-204 1199c-32,173 18,353 130,484 112,136 279,211 459,211l1043 0c50,0 100,31 125,74 24,44 18,100 -7,143 0,0 -161,255 -161,658 0,441 192,596 323,596 68,0 136,0 136,-415 0,-721 957,-1205 994,-1230l50 -25c68,-31 149,-6 186,62 31,69 6,149 -62,187l-50 24c-6,7 -844,429 -844,982 0,347 -31,701 -410,701z"/>
    </g>
   </g>
  </g>
  <g id="social.svg">
   <g>
    <g>
     <g>
      <g>
       <g>
        <circle class="fil4" cx="18839" cy="872" r="3930"/>
       </g>
      </g>
     </g>
    </g>
    <g>
     <path class="fil4" d="M17417 -314l-459 0c-180,0 -323,143 -323,323l0 2111c0,180 143,323 323,323l459 0c180,0 323,-143 323,-323l0 -2117c0,-174 -149,-317 -323,-317z"/>
     <path class="fil4" d="M20081 -177l-869 0c0,0 136,-273 136,-733 0,-552 -416,-733 -596,-733 -186,0 -273,94 -273,553 0,435 -515,789 -788,969l0 2272c291,137 974,335 1893,335l292 0c360,0 664,-254 727,-608l204 -1198c81,-447 -267,-857 -726,-857z"/>
     <path class="fil1" d="M16958 -500l459 0c180,0 323,143 323,323l0 2483c0,180 -143,323 -323,323l-459 0c-180,0 -323,-143 -323,-323l0 -2483c0,-174 143,-323 323,-323zm459 2856c25,0 44,-19 44,-43l0 -2484c0,-25 -19,-43 -44,-43l-459 0c-25,0 -44,18 -44,43l0 2484c0,24 19,43 44,43l459 0z"/>
     <path class="fil1" d="M18845 -1785c205,0 597,180 597,875 0,255 -50,460 -106,596l838 0c261,0 503,112 671,311 167,198 236,459 192,714l-205 1198c-74,422 -434,726 -863,726l-292 0c-1409,0 -2073,-465 -2104,-484l-50 -37c-62,-44 -75,-131 -31,-193 43,-62 130,-74 192,-31l50 38c6,6 633,434 1943,434l292 0c292,0 540,-211 590,-496l205 -1199c31,-174 -19,-354 -130,-484 -112,-137 -280,-211 -460,-211l-1049 0c-50,0 -99,-31 -124,-75 -25,-43 -19,-99 6,-143 0,0 161,-254 161,-658 0,-440 -192,-596 -323,-596 -68,0 -136,0 -136,416 0,721 -956,1205 -994,1230l-49 24c-69,32 -149,7 -187,-62 -31,-68 -6,-149 63,-186l49 -25c6,-18 845,-441 845,-993 0,-335 31,-689 409,-689z"/>
    </g>
   </g>
  </g>
 </g>
</svg>
